<svg xmlns="http://www.w3.org/2000/svg" version="1.1" xmlns:xlink="http://www.w3.org/1999/xlink" width="180" height="180"><svg xmlns="http://www.w3.org/2000/svg" version="1.1" xmlns:xlink="http://www.w3.org/1999/xlink" width="180" height="180"><svg width="180" height="180" viewBox="0 0 180 180" fill="none" xmlns="http://www.w3.org/2000/svg">
<rect width="180" height="180" rx="40" fill="#FBF3E7"></rect>
<path d="M69.008 156.112C68.8373 154.064 68.4107 151.547 67.728 148.56C67.0453 145.659 66.3627 143.355 65.68 141.648H78.48C80.1867 141.648 81.424 141.392 82.192 140.88C82.96 140.283 83.344 139.131 83.344 137.424V124.24H33.424V111.184H83.344V103.632H89.104C90.384 102.693 92.048 101.413 94.096 99.792C96.2293 98.0853 98.1493 96.464 99.856 94.928H56.208V82.384H120.848L126.608 88.272C124.987 89.8933 122.981 91.7707 120.592 93.904C118.203 96.0373 115.685 98.2133 113.04 100.432C110.395 102.651 107.835 104.699 105.36 106.576C102.971 108.453 100.923 109.989 99.216 111.184H146.448V124.24H98.576V142.8C98.576 151.675 93.2 156.112 82.448 156.112H69.008ZM34.448 92.496V62.288H54.16C52.9653 59.5573 51.4293 56.6133 49.552 53.456C47.76 50.2133 46.0533 47.6533 44.432 45.776L57.616 39.76C58.896 41.2107 60.2613 43.1307 61.712 45.52C63.248 47.824 64.6987 50.2133 66.064 52.688C67.4293 55.0773 68.4533 57.168 69.136 58.96L61.328 62.288H83.6C82.9173 60.3253 81.9787 58.1493 80.784 55.76C79.6747 53.2853 78.48 50.896 77.2 48.592C75.92 46.288 74.64 44.3253 73.36 42.704L87.056 37.712C88.336 39.1627 89.7013 41.168 91.152 43.728C92.688 46.2027 94.096 48.7627 95.376 51.408C96.7413 54.0533 97.7227 56.3147 98.32 58.192L88.08 62.288H104.848C106.299 59.984 107.792 57.3813 109.328 54.48C110.949 51.4933 112.443 48.5493 113.808 45.648C115.259 42.7467 116.411 40.3147 117.264 38.352L132.624 42.32C131.173 45.392 129.424 48.7627 127.376 52.432C125.328 56.1013 123.408 59.3867 121.616 62.288H145.552V92.496H130.832V74.576H48.912V92.496H34.448Z" fill="black"></path>
</svg></svg><style>@media (prefers-color-scheme: light) { :root { filter: none; } }
@media (prefers-color-scheme: dark) { :root { filter: none; } }
</style></svg>